<?xml version="1.0" encoding="UTF-8"?>
<svg id="Layer_1" xmlns="http://www.w3.org/2000/svg" version="1.1" viewBox="0 0 30 30">
  <!-- Generator: Adobe Illustrator 29.6.1, SVG Export Plug-In . SVG Version: 2.1.1 Build 9)  -->
  <g>
    <path d="M.3,26.72v1.73h-.3v-2.28h.38l.88,1.89h.03l.88-1.89h.39v2.28h-.31v-1.73h-.02l-.81,1.73h-.28l-.8-1.73h-.02Z"/>
    <path d="M4.09,27.8l-.26.64h-.33l.95-2.28h.32l.95,2.28h-.33l-.26-.64h-1.05ZM4.62,26.53h-.02l-.41,1.03h.85l-.42-1.03h0Z"/>
    <path d="M6.98,26.66v1.79h-.31v-2.28h.3l1.42,1.79h.02v-1.79h.31v2.28h-.31l-1.41-1.79h-.03Z"/>
    <path d="M10.26,27.8l-.26.64h-.33l.95-2.28h.32l.95,2.28h-.33l-.26-.64h-1.05ZM10.8,26.53h-.02l-.41,1.03h.85l-.42-1.03h0Z"/>
    <path d="M13.85,27.55v-.24h.99v.24c0,.19-.05.35-.14.49-.09.14-.22.25-.38.32-.16.08-.34.11-.55.11-.23,0-.43-.05-.6-.14-.18-.1-.31-.23-.41-.41s-.14-.38-.14-.62.05-.45.15-.62c.1-.18.23-.31.4-.41.17-.09.37-.14.59-.14.13,0,.26.02.38.05s.22.09.32.15c.09.07.17.14.23.24.06.09.1.19.13.3h-.32c-.06-.15-.15-.27-.27-.36-.13-.09-.29-.13-.47-.13-.15,0-.29.03-.42.1-.13.07-.23.18-.3.31-.07.14-.11.3-.11.49s.04.36.11.5c.07.13.18.24.3.31s.27.11.43.11c.15,0,.28-.03.39-.09.11-.06.2-.13.26-.23s.1-.22.1-.35h-.68,0Z"/>
    <path d="M17.49,28.2v.24h-1.58v-2.28h1.56v.24h-1.25v.76h1.17v.24h-1.17v.78h1.27Z"/>
    <path d="M18.88,26.72v1.73h-.3v-2.28h.38l.88,1.89h.03l.88-1.89h.39v2.28h-.31v-1.73h-.02l-.81,1.73h-.28l-.8-1.73h-.02Z"/>
    <path d="M23.88,28.2v.24h-1.58v-2.28h1.56v.24h-1.25v.76h1.17v.24h-1.17v.78h1.27Z"/>
    <path d="M25.29,26.66v1.79h-.31v-2.28h.3l1.42,1.79h.02v-1.79h.31v2.28h-.31l-1.41-1.79h-.03Z"/>
    <path d="M29.19,26.42v2.03h-.31v-2.03h-.82v-.24h1.94v.24h-.81Z"/>
  </g>
  <g>
    <path d="M23.35,23.04H6.76c-.08,0-.15-.04-.18-.11-.03-.07-.03-.15.02-.21L23.05,1.82H6.65v-.29h16.59c.08,0,.15.04.18.11.03.07.03.15-.02.21L6.95,22.74h16.4v.29Z"/>
    <rect x="14.85" y="3.93" width=".29" height="16.7"/>
  </g>
</svg>