<?xml version="1.0" encoding="UTF-8"?>
<svg id="Layer_1" data-name="Layer 1" xmlns="http://www.w3.org/2000/svg" viewBox="0 0 250 250">
  <defs>
    <style>
      .cls-1 {
        fill: #fff;
      }
    </style>
  </defs>
  <circle cx="125" cy="125" r="125"/>
  <g>
    <path class="cls-1" d="M159.44,83.18c-4.21,0-7.63,3.41-7.63,7.63s3.41,7.63,7.63,7.63,7.63-3.41,7.63-7.63-3.41-7.63-7.63-7.63Z"/>
    <path class="cls-1" d="M125.53,92.96c-17.67,0-32.04,14.37-32.04,32.04s14.37,32.04,32.04,32.04,32.04-14.37,32.04-32.04-14.37-32.04-32.04-32.04ZM125.53,145.52c-11.32,0-20.52-9.21-20.52-20.52s9.21-20.52,20.52-20.52,20.52,9.21,20.52,20.52-9.21,20.52-20.52,20.52Z"/>
    <path class="cls-1" d="M150.97,190.05h-51.94c-21.55,0-39.08-17.53-39.08-39.08v-51.94c0-21.55,17.53-39.08,39.08-39.08h51.94c21.55,0,39.08,17.53,39.08,39.08v51.94c0,21.55-17.53,39.08-39.08,39.08ZM99.03,72.19c-14.8,0-26.84,12.04-26.84,26.84v51.94c0,14.8,12.04,26.84,26.84,26.84h51.94c14.8,0,26.84-12.04,26.84-26.84v-51.94c0-14.8-12.04-26.84-26.84-26.84h-51.94Z"/>
  </g>
</svg>