<?xml version="1.0" encoding="UTF-8"?>
<svg id="Layer_1" data-name="Layer 1" xmlns="http://www.w3.org/2000/svg" viewBox="0 0 250 250">
  <defs>
    <style>
      .cls-1 {
        fill: #fff;
      }
    </style>
  </defs>
  <circle cx="125" cy="125" r="125"/>
  <path class="cls-1" d="M178.96,111.6h-.02c-1.15.11-2.3.17-3.46.18-12.66,0-24.47-6.38-31.41-16.98v57.81c0,23.6-19.13,42.73-42.73,42.73s-42.72-19.13-42.72-42.73,19.13-42.73,42.72-42.73c.89,0,1.76.08,2.64.14v21.05c-.88-.1-1.74-.27-2.64-.27-12.04,0-21.81,9.76-21.81,21.81s9.76,21.81,21.81,21.81,22.68-9.49,22.68-21.54l.21-98.18h20.14c1.9,18.06,16.46,32.17,34.58,33.5v23.4Z"/>
</svg>