<?xml version="1.0" encoding="UTF-8"?>
<svg id="Layer_1" data-name="Layer 1" xmlns="http://www.w3.org/2000/svg" viewBox="0 0 250 250">
  <defs>
    <style>
      .cls-1 {
        fill: #fff;
      }
    </style>
  </defs>
  <circle cx="125" cy="125" r="125"/>
  <g>
    <path class="cls-1" d="M119.76,127.36l-46.92-44.76c2.22-1.63,4.96-2.59,7.92-2.59h88.49c4.13,0,6.99.59,8.96,1.62l-47.83,45.71-.06.05c-1.41,1.41-3.28,2.18-5.27,2.18s-3.86-.77-5.27-2.18l-.03-.03Z"/>
    <path class="cls-1" d="M106.89,124.82l-37.8,38.37c-1.09-1.94-1.72-4.18-1.72-6.56v-63.24c0-1.86.38-3.64,1.07-5.25l38.45,36.68Z"/>
    <path class="cls-1" d="M175.96,168.2c-1.97,1.15-4.27,1.8-6.71,1.8h-88.49c-2.45,0-4.74-.66-6.71-1.8l37.95-38.52,2.85,2.72c2.73,2.72,6.36,4.21,10.22,4.21s7.48-1.5,10.22-4.21l2.79-2.66,37.89,38.46Z"/>
    <path class="cls-1" d="M182.63,93.38v63.24c0,2.39-.62,4.63-1.72,6.56l-37.75-38.32,39.12-37.39c.33,1.78.35,3.79.35,5.91Z"/>
  </g>
</svg>